<svg xmlns="http://www.w3.org/2000/svg" xmlns:xlink="http://www.w3.org/1999/xlink" width="219" height="221" viewBox="0 0 219 221">
  <defs>
    <filter id="Polygon_1" x="0" y="0" width="219" height="221" filterUnits="userSpaceOnUse">
      <feOffset dy="5" input="SourceAlpha"/>
      <feGaussianBlur stdDeviation="2.5" result="blur"/>
      <feFlood flood-opacity="0.502"/>
      <feComposite operator="in" in2="blur"/>
      <feComposite in="SourceGraphic"/>
    </filter>
    <clipPath id="clip-path">
      <path id="Polygon_2" data-name="Polygon 2" d="M92.288,21.216a12,12,0,0,1,21.424,0l83.5,165.375A12,12,0,0,1,186.5,204H19.5A12,12,0,0,1,8.79,186.591Z" transform="translate(877 559.5) rotate(90)" fill="#3a9daa"/>
    </clipPath>
  </defs>
  <g id="Group_2" data-name="Group 2" transform="translate(-665.5 -557)">
    <g transform="matrix(1, 0, 0, 1, 665.5, 557)" filter="url(#Polygon_1)">
      <path id="Polygon_1-2" data-name="Polygon 1" d="M92.288,21.216a12,12,0,0,1,21.424,0l83.5,165.375A12,12,0,0,1,186.5,204H19.5A12,12,0,0,1,8.79,186.591Z" transform="translate(211.5 2.5) rotate(90)" fill="#3a9daa"/>
    </g>
    <g id="Mask_Group_6" data-name="Mask Group 6" clip-path="url(#clip-path)">
      <ellipse id="Ellipse_1" data-name="Ellipse 1" cx="124" cy="68.5" rx="124" ry="68.5" transform="matrix(0.995, 0.105, -0.105, 0.995, 656.839, 525.414)" fill="#63b4c0"/>
    </g>
    <g id="Polygon_3" data-name="Polygon 3" transform="translate(877 559.5) rotate(90)" fill="none">
      <path d="M92.288,21.216a12,12,0,0,1,21.424,0l83.5,165.375A12,12,0,0,1,186.5,204H19.5A12,12,0,0,1,8.79,186.591Z" stroke="none"/>
      <path d="M 102.9999771118164 16.62460327148438 C 101.189338684082 16.62460327148438 99.42460632324219 17.09912109375 97.8966064453125 17.99687194824219 C 96.25241851806641 18.96286010742188 94.96607971191406 20.34925842285156 94.07328796386719 22.11749267578125 L 10.574951171875 187.4928436279297 C 9.76129150390625 189.1043395996094 9.400466918945312 190.8099975585938 9.502532958984375 192.5624237060547 C 9.5980224609375 194.2021331787109 10.11061096191406 195.8198394775391 10.98486328125 197.2406311035156 C 11.85910034179688 198.6614227294922 13.07215881347656 199.8480987548828 14.49284362792969 200.67236328125 C 16.01115417480469 201.5533142089844 17.69636535644531 201.9999694824219 19.50163269042969 201.9999694824219 L 186.4983673095703 201.9999694824219 C 188.3036346435547 201.9999694824219 189.9888153076172 201.5533142089844 191.5071563720703 200.67236328125 C 192.9278411865234 199.8480987548828 194.140869140625 198.6614227294922 195.01513671875 197.2406311035156 C 195.8893890380859 195.8198394775391 196.4019775390625 194.2021331787109 196.4974670410156 192.5624237060547 C 196.5995330810547 190.8099975585938 196.2387084960938 189.1043395996094 195.425048828125 187.4928436279297 L 111.9266815185547 22.11749267578125 C 111.0338973999023 20.34925842285156 109.7475280761719 18.96286010742188 108.1033706665039 17.99687194824219 C 106.5753402709961 17.09912109375 104.8106307983398 16.62460327148438 102.9999771118164 16.62460327148438 M 102.9999847412109 14.62460327148438 C 107.2466583251953 14.62460327148438 111.4933319091797 16.82176208496094 113.712028503418 21.21607971191406 L 197.2103881835938 186.5914154052734 C 201.2402648925781 194.5728912353516 195.4394683837891 203.9999694824219 186.4983673095703 203.9999694824219 L 19.50163269042969 203.9999694824219 C 10.56050109863281 203.9999694824219 4.759735107421875 194.5728912353516 8.78961181640625 186.5914154052734 L 92.28794860839844 21.21607971191406 C 94.50664520263672 16.82176208496094 98.75331878662109 14.62460327148438 102.9999847412109 14.62460327148438 Z" stroke="none" fill="#128495"/>
    </g>
  </g>
</svg>
